<svg version="1.1" id="Layer_1" xmlns="http://www.w3.org/2000/svg" xmlns:xlink="http://www.w3.org/1999/xlink" x="0px" y="0px"
	 width="100%" viewBox="0 0 2000 1500" enable-background="new 0 0 2000 1500" xml:space="preserve">
<path fill="#FFFFFF" opacity="1.000000" stroke="none" 
	d="
M1439.000000,1501.000000 
	C959.333496,1501.000000 480.166962,1501.000000 1.000321,1501.000000 
	C1.000214,1001.000305 1.000214,501.000580 1.000107,1.000657 
	C667.666199,1.000438 1334.332397,1.000438 2000.998901,1.000219 
	C2000.999268,500.999359 2000.999268,1000.998718 2000.999634,1500.999023 
	C1813.833374,1501.000000 1626.666626,1501.000000 1439.000000,1501.000000 
M1167.500000,1242.119263 
	C1192.657837,1242.538696 1217.818604,1242.833130 1242.973022,1243.403442 
	C1298.136719,1244.653931 1353.291626,1245.270508 1408.044312,1236.933105 
	C1423.276855,1234.613525 1438.963989,1232.486450 1453.203979,1227.035645 
	C1481.131714,1216.345703 1508.076660,1203.113281 1535.687134,1191.551392 
	C1542.427368,1188.728882 1545.861816,1184.484009 1548.132568,1178.032349 
	C1556.258179,1154.945923 1560.062622,1130.967041 1562.880371,1106.827148 
	C1567.734863,1065.238892 1568.843018,1023.450195 1569.055054,981.611084 
	C1569.245728,943.951599 1569.539185,906.285706 1570.448486,868.638611 
	C1571.622925,820.005676 1573.719727,771.395142 1574.915894,722.762573 
	C1575.801025,686.780212 1575.554932,650.770447 1576.390747,614.786377 
	C1578.110352,540.760620 1577.224121,466.840759 1567.884766,393.269928 
	C1564.888550,369.667053 1560.854004,346.208191 1550.059326,324.511841 
	C1540.281616,304.859558 1529.352295,286.052612 1512.703247,271.298187 
	C1497.843262,258.129150 1480.691162,251.089233 1460.488647,250.840820 
	C1441.832642,250.611404 1424.201782,255.080856 1406.654053,260.313324 
	C1398.445312,262.761047 1390.252319,263.893890 1381.685059,264.263245 
	C1361.562256,265.130707 1341.312012,265.658264 1321.405884,268.427155 
	C1268.015137,275.853760 1214.779419,284.394196 1161.479248,292.472809 
	C1137.307617,296.136444 1113.274292,301.070892 1088.592041,299.869904 
	C1079.610107,299.432892 1070.602783,299.538208 1061.608765,299.322784 
	C1006.307007,297.998291 951.010681,296.380859 895.703125,295.379669 
	C817.334656,293.960999 739.127075,295.768585 661.583069,308.963684 
	C614.878235,316.911041 569.268127,328.834656 525.022217,345.843353 
	C523.957764,346.252502 522.988037,346.911438 521.981506,347.467163 
	C516.786438,350.335510 511.835022,353.837128 506.347595,355.942017 
	C496.425323,359.747986 486.087372,362.456665 476.094116,366.093781 
	C450.990631,375.230286 433.560181,391.640930 427.405975,418.487549 
	C424.392548,431.633087 423.511353,445.081970 425.494720,458.231354 
	C429.932495,487.653534 435.051422,516.992310 440.726105,546.203247 
	C446.531067,576.084839 454.274048,605.625916 454.524445,636.348206 
	C454.536957,637.881714 455.107727,639.410706 455.418549,640.941772 
	C455.844086,641.125977 456.269623,641.310120 456.695160,641.494263 
	C458.000061,639.448303 459.304932,637.402405 460.609833,635.356445 
	C462.408112,637.401489 462.913300,638.575500 463.124329,639.800171 
	C465.136169,651.472717 468.790222,661.724365 480.528351,667.764038 
	C485.733337,670.442200 487.672272,675.908875 486.447571,682.798523 
	C484.239899,695.217712 482.805664,707.848389 482.121094,720.449097 
	C480.602905,748.394104 484.734619,775.942627 489.413818,803.379211 
	C492.149841,819.422058 492.422424,819.506287 477.608765,826.523132 
	C469.129456,830.539551 462.154663,836.192749 458.941254,845.028625 
	C456.189240,852.595886 454.595551,860.611877 452.859375,868.510681 
	C451.827972,873.202942 451.728638,878.095398 450.794098,882.815491 
	C450.225494,885.687317 448.600250,887.268066 444.977173,886.277405 
	C437.819397,884.320251 432.479034,888.739624 433.428558,896.013367 
	C435.035126,908.320435 433.206451,920.255066 430.487152,932.148376 
	C427.333893,945.939697 425.592957,959.689636 430.524200,973.489075 
	C430.980530,974.766052 430.446014,976.390625 430.399139,977.854736 
	C430.042999,988.975891 428.892151,1000.142334 429.514740,1011.208801 
	C430.691162,1032.120239 432.828308,1052.979736 434.719025,1073.846924 
	C435.043365,1077.426514 435.190338,1081.565918 437.058319,1084.345093 
	C440.608643,1089.627197 440.626068,1094.890381 439.443207,1100.563110 
	C438.119202,1106.912598 436.579407,1113.219482 435.371735,1119.590088 
	C434.194305,1125.801147 434.426361,1131.656372 439.084625,1136.856689 
	C443.183380,1141.432373 446.490417,1146.706787 450.414948,1151.451050 
	C471.858276,1177.373657 498.054291,1195.744141 531.585632,1202.560303 
	C552.005005,1206.711182 572.663208,1206.037842 593.310120,1206.453613 
	C611.931335,1206.828613 630.624390,1207.323364 649.118042,1209.319336 
	C668.360962,1211.396118 686.112732,1218.737549 702.365234,1229.575317 
	C706.629028,1224.737305 708.149536,1217.926392 715.116272,1213.782959 
	C715.116272,1222.206177 715.116272,1229.337280 715.116272,1237.678833 
	C720.288513,1232.163086 722.407410,1235.360718 724.383789,1239.083008 
	C726.099487,1242.314331 727.642273,1245.661255 729.628235,1248.718994 
	C731.807617,1252.074463 734.260620,1251.998291 735.962280,1248.451660 
	C737.151611,1245.972900 737.853821,1243.137939 738.175781,1240.391968 
	C738.805298,1235.022949 739.016479,1229.605103 739.382935,1224.458374 
	C741.772095,1224.144897 743.670776,1224.438965 744.780396,1223.638794 
	C747.221741,1221.878296 747.034363,1209.226074 744.820251,1206.985474 
	C740.691467,1202.807251 741.608154,1197.451904 747.977356,1193.376709 
	C749.033081,1197.602905 750.277283,1201.463745 750.934998,1205.422241 
	C753.061340,1218.218628 754.847778,1231.072388 757.069214,1243.851196 
	C757.519714,1246.442261 759.298645,1248.802368 760.465088,1251.269043 
	C761.023926,1251.067383 761.582764,1250.865723 762.141541,1250.664062 
	C761.781799,1244.939941 761.267151,1239.218994 761.144348,1233.489868 
	C761.100098,1231.426392 761.399841,1228.034790 762.571167,1227.499512 
	C767.166260,1225.399292 767.124878,1220.901978 768.891663,1217.365967 
	C769.967346,1215.212891 770.864624,1212.970581 772.392822,1209.527344 
	C778.502991,1222.840332 777.417480,1236.427979 781.219238,1249.834473 
	C782.416138,1247.960938 782.950623,1247.148682 783.460999,1246.321533 
	C791.036255,1234.043457 797.586243,1232.511108 809.853271,1240.097534 
	C814.236938,1242.808594 818.513245,1245.759277 823.120911,1248.026855 
	C830.457275,1251.637085 835.491333,1250.316406 840.746887,1244.101196 
	C844.867371,1239.228271 848.704773,1238.449707 854.392273,1241.695190 
	C857.854858,1243.670898 861.026306,1246.152954 864.464050,1248.177246 
	C870.875061,1251.951782 873.799683,1251.175293 878.322998,1245.347046 
	C879.646851,1243.641357 881.724670,1242.520752 883.456909,1241.131836 
	C884.698669,1243.006470 886.409363,1244.730591 887.070557,1246.791504 
	C888.025940,1249.769531 889.404419,1251.094482 892.674866,1250.954346 
	C913.633789,1250.055176 934.620422,1249.662476 955.556458,1248.408813 
	C978.675842,1247.024536 1001.755676,1244.845947 1024.880615,1247.980957 
	C1035.023804,1249.355957 1044.822388,1251.116577 1055.436523,1249.330078 
	C1092.155640,1243.149780 1129.325195,1242.217041 1167.500000,1242.119263 
z"/>
<path fill="#8B3C7F" opacity="1.000000" stroke="none" 
	d="
M1167.000000,1242.119141 
	C1129.325195,1242.217041 1092.155640,1243.149780 1055.436523,1249.330078 
	C1044.822388,1251.116577 1035.023804,1249.355957 1024.880615,1247.980957 
	C1001.755676,1244.845947 978.675842,1247.024536 955.556458,1248.408813 
	C934.620422,1249.662476 913.633789,1250.055176 892.674866,1250.954346 
	C889.404419,1251.094482 888.025940,1249.769531 887.070557,1246.791504 
	C886.409363,1244.730591 884.698669,1243.006470 883.456909,1241.131836 
	C881.724670,1242.520752 879.646851,1243.641357 878.322998,1245.347046 
	C873.799683,1251.175293 870.875061,1251.951782 864.464050,1248.177246 
	C861.026306,1246.152954 857.854858,1243.670898 854.392273,1241.695190 
	C848.704773,1238.449707 844.867371,1239.228271 840.746887,1244.101196 
	C835.491333,1250.316406 830.457275,1251.637085 823.120911,1248.026855 
	C818.513245,1245.759277 814.236938,1242.808594 809.853271,1240.097534 
	C797.586243,1232.511108 791.036255,1234.043457 783.460999,1246.321533 
	C782.950623,1247.148682 782.416138,1247.960938 781.219238,1249.834473 
	C777.417480,1236.427979 778.502991,1222.840332 772.392822,1209.527344 
	C770.864624,1212.970581 769.967346,1215.212891 768.891663,1217.365967 
	C767.124878,1220.901978 767.166260,1225.399292 762.571167,1227.499512 
	C761.399841,1228.034790 761.100098,1231.426392 761.144348,1233.489868 
	C761.267151,1239.218994 761.781799,1244.939941 762.141541,1250.664062 
	C761.582764,1250.865723 761.023926,1251.067383 760.465088,1251.269043 
	C759.298645,1248.802368 757.519714,1246.442261 757.069214,1243.851196 
	C754.847778,1231.072388 753.061340,1218.218628 750.934998,1205.422241 
	C750.277283,1201.463745 749.033081,1197.602905 747.977356,1193.376709 
	C741.608154,1197.451904 740.691467,1202.807251 744.820251,1206.985474 
	C747.034363,1209.226074 747.221741,1221.878296 744.780396,1223.638794 
	C743.670776,1224.438965 741.772095,1224.144897 739.382935,1224.458374 
	C739.016479,1229.605103 738.805298,1235.022949 738.175781,1240.391968 
	C737.853821,1243.137939 737.151611,1245.972900 735.962280,1248.451660 
	C734.260620,1251.998291 731.807617,1252.074463 729.628235,1248.718994 
	C727.642273,1245.661255 726.099487,1242.314331 724.383789,1239.083008 
	C722.407410,1235.360718 720.288513,1232.163086 715.116272,1237.678833 
	C715.116272,1229.337280 715.116272,1222.206177 715.116272,1213.782959 
	C708.149536,1217.926392 706.629028,1224.737305 702.365234,1229.575317 
	C686.112732,1218.737549 668.360962,1211.396118 649.118042,1209.319336 
	C630.624390,1207.323364 611.931335,1206.828613 593.310120,1206.453613 
	C572.663208,1206.037842 552.005005,1206.711182 531.585632,1202.560303 
	C498.054291,1195.744141 471.858276,1177.373657 450.414948,1151.451050 
	C446.490417,1146.706787 443.183380,1141.432373 439.084625,1136.856689 
	C434.426361,1131.656372 434.194305,1125.801147 435.371735,1119.590088 
	C436.579407,1113.219482 438.119202,1106.912598 439.443207,1100.563110 
	C440.626068,1094.890381 440.608643,1089.627197 437.058319,1084.345093 
	C435.190338,1081.565918 435.043365,1077.426514 434.719025,1073.846924 
	C432.828308,1052.979736 430.691162,1032.120239 429.514740,1011.208801 
	C428.892151,1000.142334 430.042999,988.975891 430.399139,977.854736 
	C430.446014,976.390625 430.980530,974.766052 430.524200,973.489075 
	C425.592957,959.689636 427.333893,945.939697 430.487152,932.148376 
	C433.206451,920.255066 435.035126,908.320435 433.428558,896.013367 
	C432.479034,888.739624 437.819397,884.320251 444.977173,886.277405 
	C448.600250,887.268066 450.225494,885.687317 450.794098,882.815491 
	C451.728638,878.095398 451.827972,873.202942 452.859375,868.510681 
	C454.595551,860.611877 456.189240,852.595886 458.941254,845.028625 
	C462.154663,836.192749 469.129456,830.539551 477.608765,826.523132 
	C492.422424,819.506287 492.149841,819.422058 489.413818,803.379211 
	C484.734619,775.942627 480.602905,748.394104 482.121094,720.449097 
	C482.805664,707.848389 484.239899,695.217712 486.447571,682.798523 
	C487.672272,675.908875 485.733337,670.442200 480.528351,667.764038 
	C468.790222,661.724365 465.136169,651.472717 463.124329,639.800171 
	C462.913300,638.575500 462.408112,637.401489 460.609833,635.356445 
	C459.304932,637.402405 458.000061,639.448303 456.695160,641.494263 
	C456.269623,641.310120 455.844086,641.125977 455.418549,640.941772 
	C455.107727,639.410706 454.536957,637.881714 454.524445,636.348206 
	C454.274048,605.625916 446.531067,576.084839 440.726105,546.203247 
	C435.051422,516.992310 429.932495,487.653534 425.494720,458.231354 
	C423.511353,445.081970 424.392548,431.633087 427.405975,418.487549 
	C433.560181,391.640930 450.990631,375.230286 476.094116,366.093781 
	C486.087372,362.456665 496.425323,359.747986 506.347595,355.942017 
	C511.835022,353.837128 516.786438,350.335510 521.981506,347.467163 
	C522.988037,346.911438 523.957764,346.252502 525.022217,345.843353 
	C569.268127,328.834656 614.878235,316.911041 661.583069,308.963684 
	C739.127075,295.768585 817.334656,293.960999 895.703125,295.379669 
	C951.010681,296.380859 1006.307007,297.998291 1061.608765,299.322784 
	C1070.602783,299.538208 1079.610107,299.432892 1088.592041,299.869904 
	C1113.274292,301.070892 1137.307617,296.136444 1161.479248,292.472809 
	C1214.779419,284.394196 1268.015137,275.853760 1321.405884,268.427155 
	C1341.312012,265.658264 1361.562256,265.130707 1381.685059,264.263245 
	C1390.252319,263.893890 1398.445312,262.761047 1406.654053,260.313324 
	C1424.201782,255.080856 1441.832642,250.611404 1460.488647,250.840820 
	C1480.691162,251.089233 1497.843262,258.129150 1512.703247,271.298187 
	C1529.352295,286.052612 1540.281616,304.859558 1550.059326,324.511841 
	C1560.854004,346.208191 1564.888550,369.667053 1567.884766,393.269928 
	C1577.224121,466.840759 1578.110352,540.760620 1576.390747,614.786377 
	C1575.554932,650.770447 1575.801025,686.780212 1574.915894,722.762573 
	C1573.719727,771.395142 1571.622925,820.005676 1570.448486,868.638611 
	C1569.539185,906.285706 1569.245728,943.951599 1569.055054,981.611084 
	C1568.843018,1023.450195 1567.734863,1065.238892 1562.880371,1106.827148 
	C1560.062622,1130.967041 1556.258179,1154.945923 1548.132568,1178.032349 
	C1545.861816,1184.484009 1542.427368,1188.728882 1535.687134,1191.551392 
	C1508.076660,1203.113281 1481.131714,1216.345703 1453.203979,1227.035645 
	C1438.963989,1232.486450 1423.276855,1234.613525 1408.044312,1236.933105 
	C1353.291626,1245.270508 1298.136719,1244.653931 1242.973022,1243.403442 
	C1217.818604,1242.833130 1192.657837,1242.538696 1167.000000,1242.119141 
M659.142761,419.503876 
	C656.662903,507.203674 654.182983,594.903503 651.691650,683.008972 
	C699.792908,679.892517 748.252502,676.752869 796.772095,673.609314 
	C798.871033,654.205688 800.249084,635.079224 803.169861,616.191406 
	C806.340942,595.684998 809.476929,574.971680 815.267151,555.118225 
	C824.322693,524.068237 851.840271,508.088501 883.282532,513.576355 
	C883.282532,515.284302 883.282593,517.077148 883.282593,518.869995 
	C883.282532,656.698853 883.339722,794.527832 883.183838,932.356506 
	C883.169922,944.645386 882.361694,957.003296 880.899353,969.206543 
	C877.412720,998.303528 861.884033,1017.343323 833.062256,1025.201538 
	C812.577759,1030.786621 791.721497,1033.840454 770.677246,1035.973267 
	C768.276855,1036.216553 766.262390,1036.120850 765.977051,1039.588257 
	C763.409363,1070.790283 760.662476,1101.977661 757.976074,1133.169922 
	C757.641907,1137.050171 757.353455,1140.934326 757.017212,1145.150635 
	C776.534851,1143.968384 795.298706,1142.652344 814.081848,1141.729370 
	C861.168213,1139.415283 908.253967,1135.726440 955.357117,1135.443726 
	C1022.152649,1135.043213 1088.967041,1137.034424 1155.766357,1138.359741 
	C1180.413086,1138.848877 1205.046387,1140.223877 1229.669189,1141.512573 
	C1233.719116,1141.724609 1234.690674,1140.730103 1235.044922,1136.857910 
	C1238.140015,1103.031860 1241.432739,1069.223755 1244.737305,1035.417236 
	C1245.457520,1028.048706 1241.331299,1023.533508 1233.888794,1023.953735 
	C1231.395874,1024.094482 1228.913086,1024.483032 1226.420288,1024.546021 
	C1205.804810,1025.066650 1185.124756,1026.754272 1164.589600,1025.683594 
	C1143.713379,1024.595215 1128.995605,1013.014221 1123.310791,992.309692 
	C1120.642090,982.590332 1118.699097,972.436890 1118.236694,962.396790 
	C1117.340332,942.938965 1117.461914,923.419983 1117.623535,903.930237 
	C1118.253540,827.939636 1118.845947,751.947449 1119.882690,675.961792 
	C1120.605469,622.976074 1122.026978,569.999878 1123.154053,517.019836 
	C1123.181274,515.740356 1123.422119,514.465454 1123.631714,512.570190 
	C1130.898193,513.117859 1137.864624,513.479065 1144.794189,514.195618 
	C1166.305176,516.420166 1180.313354,527.872375 1186.638794,548.615540 
	C1187.414673,551.160095 1188.332764,553.665833 1189.008301,556.235962 
	C1196.835815,586.012024 1199.011108,616.603088 1201.987793,647.072083 
	C1203.147461,658.942322 1203.992676,670.843262 1205.010376,683.081543 
	C1254.009644,679.906311 1302.466553,676.766174 1351.191040,673.608765 
	C1351.191040,671.287964 1351.231445,669.476074 1351.185059,667.666382 
	C1350.190918,628.852966 1348.959839,590.044067 1348.240356,551.225586 
	C1347.252075,497.907349 1346.226196,444.582184 1346.191406,391.259338 
	C1346.182983,378.506714 1343.483887,368.515961 1333.702881,360.230438 
	C1330.862793,357.824554 1328.492065,356.722687 1324.945923,357.153656 
	C1318.667725,357.916656 1312.358032,358.426849 1306.058350,359.006744 
	C1282.184326,361.204315 1258.313843,363.441498 1234.432617,365.557800 
	C1217.187866,367.085999 1199.932007,369.638214 1182.674927,369.689850 
	C1061.846558,370.051666 941.016663,369.883209 820.187256,369.867828 
	C817.860168,369.867554 815.524658,369.754425 813.207275,369.540741 
	C797.123596,368.057678 781.044495,366.525269 764.962402,365.025299 
	C737.607727,362.473938 710.241821,360.035065 682.905701,357.299164 
	C677.908936,356.799072 673.967407,357.204346 670.755859,361.617188 
	C668.224121,365.096069 664.797119,367.911285 662.085999,371.277527 
	C660.954163,372.682831 660.104309,374.735626 660.050293,376.521942 
	C659.627502,390.512817 659.429199,404.510468 659.142761,419.503876 
z"/>
<path fill="#FFFFFF" opacity="1.000000" stroke="none" 
	d="
M659.152222,419.004944 
	C659.429199,404.510468 659.627502,390.512817 660.050293,376.521942 
	C660.104309,374.735626 660.954163,372.682831 662.085999,371.277527 
	C664.797119,367.911285 668.224121,365.096069 670.755859,361.617188 
	C673.967407,357.204346 677.908936,356.799072 682.905701,357.299164 
	C710.241821,360.035065 737.607727,362.473938 764.962402,365.025299 
	C781.044495,366.525269 797.123596,368.057678 813.207275,369.540741 
	C815.524658,369.754425 817.860168,369.867554 820.187256,369.867828 
	C941.016663,369.883209 1061.846558,370.051666 1182.674927,369.689850 
	C1199.932007,369.638214 1217.187866,367.085999 1234.432617,365.557800 
	C1258.313843,363.441498 1282.184326,361.204315 1306.058350,359.006744 
	C1312.358032,358.426849 1318.667725,357.916656 1324.945923,357.153656 
	C1328.492065,356.722687 1330.862793,357.824554 1333.702881,360.230438 
	C1343.483887,368.515961 1346.182983,378.506714 1346.191406,391.259338 
	C1346.226196,444.582184 1347.252075,497.907349 1348.240356,551.225586 
	C1348.959839,590.044067 1350.190918,628.852966 1351.185059,667.666382 
	C1351.231445,669.476074 1351.191040,671.287964 1351.191040,673.608765 
	C1302.466553,676.766174 1254.009644,679.906311 1205.010376,683.081543 
	C1203.992676,670.843262 1203.147461,658.942322 1201.987793,647.072083 
	C1199.011108,616.603088 1196.835815,586.012024 1189.008301,556.235962 
	C1188.332764,553.665833 1187.414673,551.160095 1186.638794,548.615540 
	C1180.313354,527.872375 1166.305176,516.420166 1144.794189,514.195618 
	C1137.864624,513.479065 1130.898193,513.117859 1123.631714,512.570190 
	C1123.422119,514.465454 1123.181274,515.740356 1123.154053,517.019836 
	C1122.026978,569.999878 1120.605469,622.976074 1119.882690,675.961792 
	C1118.845947,751.947449 1118.253540,827.939636 1117.623535,903.930237 
	C1117.461914,923.419983 1117.340332,942.938965 1118.236694,962.396790 
	C1118.699097,972.436890 1120.642090,982.590332 1123.310791,992.309692 
	C1128.995605,1013.014221 1143.713379,1024.595215 1164.589600,1025.683594 
	C1185.124756,1026.754272 1205.804810,1025.066650 1226.420288,1024.546021 
	C1228.913086,1024.483032 1231.395874,1024.094482 1233.888794,1023.953735 
	C1241.331299,1023.533508 1245.457520,1028.048706 1244.737305,1035.417236 
	C1241.432739,1069.223755 1238.140015,1103.031860 1235.044922,1136.857910 
	C1234.690674,1140.730103 1233.719116,1141.724609 1229.669189,1141.512573 
	C1205.046387,1140.223877 1180.413086,1138.848877 1155.766357,1138.359741 
	C1088.967041,1137.034424 1022.152649,1135.043213 955.357117,1135.443726 
	C908.253967,1135.726440 861.168213,1139.415283 814.081848,1141.729370 
	C795.298706,1142.652344 776.534851,1143.968384 757.017212,1145.150635 
	C757.353455,1140.934326 757.641907,1137.050171 757.976074,1133.169922 
	C760.662476,1101.977661 763.409363,1070.790283 765.977051,1039.588257 
	C766.262390,1036.120850 768.276855,1036.216553 770.677246,1035.973267 
	C791.721497,1033.840454 812.577759,1030.786621 833.062256,1025.201538 
	C861.884033,1017.343323 877.412720,998.303528 880.899353,969.206543 
	C882.361694,957.003296 883.169922,944.645386 883.183838,932.356506 
	C883.339722,794.527832 883.282532,656.698853 883.282593,518.869995 
	C883.282593,517.077148 883.282532,515.284302 883.282532,513.576355 
	C851.840271,508.088501 824.322693,524.068237 815.267151,555.118225 
	C809.476929,574.971680 806.340942,595.684998 803.169861,616.191406 
	C800.249084,635.079224 798.871033,654.205688 796.772095,673.609314 
	C748.252502,676.752869 699.792908,679.892517 651.691650,683.008972 
	C654.182983,594.903503 656.662903,507.203674 659.152222,419.004944 
z"/>
</svg>